<svg width="58" height="58" viewBox="0 0 58 58" fill="none" xmlns="http://www.w3.org/2000/svg">
<g filter="url(#filter0_d_706_699)">
<rect x="4" width="50" height="50" rx="8" fill="#2405F2"/>
<mask id="mask0_706_699" style="mask-type:alpha" maskUnits="userSpaceOnUse" x="4" y="0" width="50" height="50">
<rect x="4" width="50" height="50" rx="8" fill="#5C5E84"/>
</mask>
<g mask="url(#mask0_706_699)">
<rect x="-22" y="27" width="50" height="50" rx="8" fill="#FCD980"/>
<rect x="12" y="-9" width="50" height="50" rx="8" fill="#5239FA"/>
</g>
<path d="M20.08 24.268C20.08 28.084 21.088 30.964 24.76 30.964C28.432 30.964 29.44 28.084 29.44 24.268C29.44 20.524 28.432 17.644 24.76 17.644C21.088 17.644 20.08 20.524 20.08 24.268ZM27.424 24.268C27.424 26.842 27.154 29.092 24.76 29.092C22.366 29.092 22.096 26.842 22.096 24.268C22.096 21.82 22.366 19.516 24.76 19.516C27.154 19.516 27.424 21.82 27.424 24.268ZM31.5753 21.118H33.5733C33.6993 20.2 34.3653 19.336 35.8053 19.336C37.2093 19.336 37.9473 20.092 37.9473 21.226C37.9473 22.63 36.8133 23.17 34.9593 23.188H34.4733V24.88H34.9413C37.0833 24.88 38.1993 25.474 38.1993 27.202C38.1993 28.426 37.4433 29.362 35.9133 29.362C34.3653 29.362 33.4653 28.426 33.3753 27.202H31.3953C31.5213 29.776 33.4473 31.072 35.9313 31.072C38.6673 31.072 40.1433 29.488 40.1433 27.4C40.1433 25.582 39.2613 24.448 37.8933 24.034V23.962C38.9193 23.62 39.9093 22.558 39.9093 20.992C39.9093 19.084 38.4873 17.572 35.8773 17.572C33.4833 17.572 31.7192 18.85 31.5753 21.118Z" fill="white"/>
</g>
<defs>
<filter id="filter0_d_706_699" x="0" y="0" width="58" height="58" filterUnits="userSpaceOnUse" color-interpolation-filters="sRGB">
<feFlood flood-opacity="0" result="BackgroundImageFix"/>
<feColorMatrix in="SourceAlpha" type="matrix" values="0 0 0 0 0 0 0 0 0 0 0 0 0 0 0 0 0 0 127 0" result="hardAlpha"/>
<feOffset dy="4"/>
<feGaussianBlur stdDeviation="2"/>
<feComposite in2="hardAlpha" operator="out"/>
<feColorMatrix type="matrix" values="0 0 0 0 0 0 0 0 0 0 0 0 0 0 0 0 0 0 0.25 0"/>
<feBlend mode="normal" in2="BackgroundImageFix" result="effect1_dropShadow_706_699"/>
<feBlend mode="normal" in="SourceGraphic" in2="effect1_dropShadow_706_699" result="shape"/>
</filter>
</defs>
</svg>
